<?xml version="1.0" encoding="UTF-8"?>
<!DOCTYPE svg PUBLIC "-//W3C//DTD SVG 1.1//EN" "http://www.w3.org/Graphics/SVG/1.1/DTD/svg11.dtd">
<!-- Creator: CorelDRAW -->
<svg xmlns="http://www.w3.org/2000/svg" xml:space="preserve" width="203mm" height="203mm" version="1.1" style="shape-rendering:geometricPrecision; text-rendering:geometricPrecision; image-rendering:optimizeQuality; fill-rule:evenodd; clip-rule:evenodd"
viewBox="0 0 20300 20300"
 xmlns:xlink="http://www.w3.org/1999/xlink"
 xmlns:xodm="http://www.corel.com/coreldraw/odm/2003">
 <defs>
  <style type="text/css">
   <![CDATA[
    .fil0 {fill:#076341}
   ]]>
  </style>
 </defs>
 <g id="Слой_x0020_1">
  <metadata id="CorelCorpID_0Corel-Layer"/>
  <path class="fil0" d="M15002.8 11436.11l-1312.43 -1.96 2477.97 2477.97 0 2224.59 -2031.46 0 -3993.43 -3986.83 -1421.56 1408.35 0 -2114.8 -1224.41 0 -926.09 926.09 1224.42 0 0 5064.4 2347.64 2295.37 2347.64 -2304.66 0 -3858.46 -926.04 -926.13 0 4400.93 -1421.6 1421.56 -1421.56 -1412.28 0 -2182.27 1421.56 -1407.63 0 -7.32 3609.77 3609.77 3341.21 0 0 -3534.34 -2091.63 -2092.35zm-10884.25 4577.55l0 -2092.3 3463.6 -3518.5 6.6 -7.27 189.83 -200.45 -1182.06 -1381.16 2125.37 0 0 -1185.4 -926.08 -926.09 0 1185.4 -2125.37 0 -3665.34 -2.01 -1971.26 2302.7 2245.79 2194.82 4291.76 -13.88 926.09 -926.09 -4878.5 -29.77 -1281.37 -1218.52 1183.44 -1383.13 2763.04 0 1184.74 1383.13 -3276.32 3342.55 0 3402.1 3341.17 0 2188.21 -2071.81 -0.04 -1309.71 -2571.83 2455.39 -2031.47 0zm16134.55 -5834.36l-2113.5 -2314.57 -4504.79 13.88 -926.05 926.09 4958.53 29.77 1281.99 1350.76 -1183.44 1250.88 -2763.04 0 -1184.73 -1250.88 3276.36 -3474.8 0 -3402.09 -3341.21 0 -2188.17 2071.81 0 1309.75 2571.83 -2455.47 2031.46 0 0 2092.34 -801.07 801.07 -2858.95 3057.39 1182.05 1248.92 -2125.32 0 0 1205.89 926.04 926.13 0 -1205.93 2125.37 0 2.01 2 3531.08 0 2103.55 -2182.94zm-7762.01 -2300.69l0 -5064.4 -2347.64 -2229.23 -2347.64 2238.51 0 3879 926.08 926.09 0 -4421.42 1421.56 -1444.72 1421.6 1435.48 0 2182.23 -1421.6 1407.68 0 7.27 -3609.77 -3609.77 -3341.17 0 0 3534.34 2091.58 2092.34 1312.43 1.97 -2477.97 -2477.97 0 -2224.59 2031.47 0 1125.81 1125.86 2867.62 2851.01 -5.31 5.31 5.31 4.65 1421.6 -1408.35 0 2114.8 1143.71 0 926.05 -926.09 -1143.72 0z"/>
 </g>
</svg>
