<?xml version="1.0" encoding="UTF-8"?>
<!DOCTYPE svg PUBLIC "-//W3C//DTD SVG 1.1//EN" "http://www.w3.org/Graphics/SVG/1.1/DTD/svg11.dtd">
<!-- Creator: CorelDRAW -->
<svg xmlns="http://www.w3.org/2000/svg" xml:space="preserve" width="241mm" height="41mm" version="1.1" style="shape-rendering:geometricPrecision; text-rendering:geometricPrecision; image-rendering:optimizeQuality; fill-rule:evenodd; clip-rule:evenodd"
viewBox="0 0 24100 4100"
 xmlns:xlink="http://www.w3.org/1999/xlink"
 xmlns:xodm="http://www.corel.com/coreldraw/odm/2003">
 <defs>
  <style type="text/css">
   <![CDATA[
    .fil0 {fill:#076341}
    .fil2 {fill:#85CABF;fill-rule:nonzero}
    .fil1 {fill:#006341;fill-rule:nonzero}
   ]]>
  </style>
 </defs>
 <g id="Слой_x0020_1">
  <metadata id="CorelCorpID_0Corel-Layer"/>
  <g id="_2092444381760">
   <path class="fil0" d="M3215.11 2329.48l-279.46 -0.42 527.65 527.65 0 473.7 -432.57 0 -850.35 -848.95 -302.71 299.89 0 -450.32 -260.72 0 -197.2 197.2 260.73 0 0 1078.4 499.9 488.77 499.9 -490.75 0 -821.61 -197.19 -197.2 0 937.12 -302.71 302.7 -302.71 -300.73 0 -464.68 302.71 -299.74 0 -1.56 768.65 768.65 711.47 0 0 -752.59 -445.39 -445.53zm-2317.66 974.72l0 -445.52 737.53 -749.22 1.41 -1.55 40.42 -42.68 -251.71 -294.1 452.57 0 0 -252.42 -197.19 -197.2 0 252.42 -452.57 0 -780.49 -0.43 -419.75 490.33 478.21 467.36 913.87 -2.96 197.2 -197.2 -1038.81 -6.34 -272.85 -259.46 252 -294.52 588.35 0 252.27 294.52 -697.65 711.75 0 724.43 711.46 0 465.95 -441.16 0 -278.89 -547.64 522.84 -432.58 0zm3435.65 -1242.35l-450.05 -492.86 -959.23 2.96 -197.19 197.2 1055.85 6.34 272.99 287.63 -252 266.36 -588.36 0 -252.27 -266.36 697.66 -739.92 0 -724.43 -711.47 0 -465.94 441.17 0 278.89 547.64 -522.86 432.57 0 0 445.54 -170.58 170.57 -608.77 651.04 251.7 265.94 -452.56 0 0 256.78 197.19 197.2 0 -256.78 452.57 0 0.43 0.42 751.89 0 447.93 -464.83zm-1652.82 -489.9l0 -1078.4 -499.9 -474.68 -499.9 476.66 0 825.98 197.19 197.2 0 -941.49 302.71 -307.63 302.71 305.67 0 464.68 -302.71 299.74 0 1.55 -768.66 -768.65 -711.46 0 0 752.59 445.38 445.54 279.46 0.42 -527.65 -527.66 0 -473.69 432.58 0 239.73 239.73 610.62 607.09 -1.13 1.13 1.13 0.99 302.71 -299.89 0 450.32 243.54 0 197.19 -197.2 -243.54 0z"/>
   <g>
    <path class="fil1" d="M6009.67 2848.05c-178.03,0 -317.39,-43.23 -418.1,-129.7 -101.22,-86.46 -151.58,-200.91 -151.58,-343.33 0,-149.03 51.38,-264.49 153.61,-345.87 102.75,-81.38 250.76,-122.07 444.04,-122.07l465.4 0 0 -61.04c0,-186.67 -108.34,-279.75 -325.52,-279.75 -183.11,0 -294,66.13 -333.16,198.37l-378.93 0c30.51,-162.76 107.32,-286.87 230.41,-372.32 122.58,-85.96 283.31,-128.68 481.68,-128.68 223.79,0 394.19,50.35 511.17,151.57 116.99,100.71 175.48,247.71 175.48,440.99l0 584.93 180.57 0 0 378.93 -389.11 0 0 -244.14 -106.81 0c-52.39,86.46 -123.09,153.6 -212.1,200.91 -89.01,47.3 -198.37,71.2 -327.05,71.2zm55.95 -292.46c82.9,0 157.67,-15.77 223.79,-47.3 66.13,-31.03 118.01,-73.76 156.16,-127.16 38.14,-53.41 57.47,-112.92 57.47,-179.04l0 -35.61 -445.05 0c-171.41,0 -256.86,63.58 -256.86,190.74 0,62.56 23.39,111.39 70.19,145.98 46.28,35.1 111.39,52.39 194.3,52.39zm1289.38 264.49l0 -1146.97 -188.19 0 0 -378.94 389.1 0 0 244.15 114.45 0c50.86,-86.47 119.02,-153.61 204.47,-200.91 85.96,-47.3 191.24,-71.21 316.88,-71.21 122.07,0 225.83,21.87 311.79,66.12 85.45,44.25 154.63,110.89 207.02,200.91l7.62 0c115.46,-178.02 289.93,-267.03 523.9,-267.03 194.81,0 348.41,56.46 460.31,168.87 111.9,112.91 167.85,266.01 167.85,459.29l0 925.72 -378.93 0 0 -857.05c0,-240.58 -115.46,-361.13 -345.87,-361.13 -228.89,0 -343.33,120.55 -343.33,361.13l0 857.05 -378.93 0 0 -857.05c0,-240.58 -115.97,-361.13 -348.42,-361.13 -111.9,0 -196.84,30.01 -254.32,90.03 -57.47,60.53 -86.46,150.55 -86.46,271.1l0 857.05 -378.94 0zm3580.79 30.52c-164.29,0 -306.71,-32.55 -427.25,-98.17 -120.55,-65.1 -213.12,-157.68 -278.73,-277.2 -65.11,-119.53 -97.66,-260.43 -97.66,-423.19 0,-162.76 32.04,-303.15 96.64,-421.15 64.59,-117.49 156.15,-208.54 274.66,-272.12 118.51,-63.58 257.88,-95.11 417.08,-95.11 156.15,0 289.92,30.01 401.82,90.53 111.9,60.02 198.37,146.49 259.41,259.41 61.03,112.41 91.55,246.18 91.55,400.29l0 132.25 -1174.95 0c13.74,128.68 57.99,227.36 133.78,296.02 75.27,68.67 175.47,103.26 301.11,103.26 93.08,0 169.37,-17.3 227.87,-52.39 58.49,-34.59 99.18,-86.47 123.09,-156.15l381.47 0c-35.6,161.23 -117.49,286.87 -245.67,377.4 -127.67,91.05 -289.41,136.32 -484.22,136.32zm-429.8 -961.32l803.65 0c-15.26,-105.29 -55.95,-185.15 -122.07,-240.59 -66.13,-54.93 -155.14,-82.4 -267.04,-82.4 -110.37,0 -200.91,27.98 -272.12,83.93 -71.21,55.95 -118.51,135.81 -142.42,239.06zm2159.16 961.32c-164.29,0 -306.71,-32.55 -427.25,-98.17 -120.55,-65.1 -213.12,-157.68 -278.73,-277.2 -65.11,-119.53 -97.66,-260.43 -97.66,-423.19 0,-162.76 32.04,-303.15 96.64,-421.15 64.59,-117.49 156.15,-208.54 274.66,-272.12 118.51,-63.58 257.88,-95.11 417.08,-95.11 156.15,0 289.92,30.01 401.82,90.53 111.9,60.02 198.37,146.49 259.41,259.41 61.03,112.41 91.55,246.18 91.55,400.29l0 132.25 -1174.95 0c13.74,128.68 57.99,227.36 133.78,296.02 75.27,68.67 175.47,103.26 301.11,103.26 93.08,0 169.37,-17.3 227.87,-52.39 58.49,-34.59 99.18,-86.47 123.09,-156.15l381.47 0c-35.6,161.23 -117.49,286.87 -245.67,377.4 -127.67,91.05 -289.41,136.32 -484.22,136.32zm-429.8 -961.32l803.65 0c-15.26,-105.29 -55.95,-185.15 -122.07,-240.59 -66.13,-54.93 -155.14,-82.4 -267.04,-82.4 -110.37,0 -200.91,27.98 -272.12,83.93 -71.21,55.95 -118.51,135.81 -142.42,239.06zm1536.08 930.8l0 -1146.97 -188.19 0 0 -378.94 389.1 0 0 244.15 106.82 0c57.47,-86.47 131.22,-153.61 221.25,-200.91 90.03,-47.3 199.9,-71.21 330.62,-71.21 208.54,0 370.28,57.48 484.73,172.94 114.44,115.46 171.41,268.56 171.41,460.31l0 920.63 -378.94 0 0 -849.42c0,-120.55 -31.53,-212.1 -95.11,-274.66 -63.58,-62.57 -158.19,-94.1 -283.82,-94.1 -122.07,0 -215.66,31.53 -280.77,94.1 -65.61,62.56 -98.16,154.11 -98.16,274.66l0 849.42 -378.94 0z"/>
    <path class="fil2" d="M16342.58 2850.6c-157.67,0 -296.02,-32.55 -414.53,-98.17 -118.51,-65.1 -211.09,-157.17 -277.21,-275.68 -66.12,-118.51 -99.18,-258.39 -99.18,-419.62 0,-161.24 32.55,-301.11 97.66,-419.63 65.61,-118.51 157.67,-210.57 276.18,-275.68 118.52,-65.61 257.88,-98.16 417.08,-98.16 196.85,0 359.61,49.33 488.29,148.52 128.69,99.18 210.07,237.02 244.15,413.52l-378.93 0c-25.44,-76.3 -67.65,-133.77 -127.16,-172.94 -59.51,-39.16 -134.79,-58.49 -226.35,-58.49 -125.63,0 -225.32,40.18 -300.09,120.55 -74.77,80.87 -111.9,194.8 -111.9,342.31 0,147.5 37.13,261.44 111.9,342.31 74.77,80.36 174.46,120.55 300.09,120.55 196.85,0 316.88,-84.95 361.14,-254.32l381.47 0c-32.04,184.63 -112.91,328.58 -241.6,431.32 -128.68,102.24 -296.03,153.61 -501.01,153.61zm946.06 -30.52l0 -2136.27 378.94 0 0 836.71 10.17 0c49.34,-82.91 115.97,-146.49 200.91,-189.72 84.94,-43.24 184.63,-64.6 300.09,-64.6 191.76,0 343.84,57.48 456.76,172.94 112.41,115.46 168.86,268.56 168.86,460.31l0 920.63 -378.93 0 0 -849.42c0,-120.55 -32.04,-212.1 -96.64,-274.66 -64.6,-62.57 -158.69,-94.1 -282.29,-94.1 -123.6,0 -217.7,31.53 -282.29,94.1 -64.6,62.56 -96.64,154.11 -96.64,274.66l0 849.42 -378.94 0zm2581.32 30.52c-164.29,0 -306.71,-32.55 -427.25,-98.17 -120.55,-65.1 -213.12,-157.68 -278.73,-277.2 -65.11,-119.53 -97.66,-260.43 -97.66,-423.19 0,-162.76 32.04,-303.15 96.64,-421.15 64.59,-117.49 156.15,-208.54 274.66,-272.12 118.51,-63.58 257.88,-95.11 417.08,-95.11 156.15,0 289.92,30.01 401.82,90.53 111.9,60.02 198.37,146.49 259.41,259.41 61.03,112.41 91.55,246.18 91.55,400.29l0 132.25 -1174.95 0c13.74,128.68 57.99,227.36 133.78,296.02 75.27,68.67 175.47,103.26 301.11,103.26 93.08,0 169.37,-17.3 227.87,-52.39 58.49,-34.59 99.18,-86.47 123.09,-156.15l381.47 0c-35.6,161.23 -117.49,286.87 -245.67,377.4 -127.67,91.05 -289.41,136.32 -484.22,136.32zm-429.8 -961.32l803.65 0c-15.26,-105.29 -55.95,-185.15 -122.07,-240.59 -66.13,-54.93 -155.14,-82.4 -267.04,-82.4 -110.37,0 -200.91,27.98 -272.12,83.93 -71.21,55.95 -118.51,135.81 -142.42,239.06zm2146.44 961.32c-157.67,0 -296.02,-32.55 -414.53,-98.17 -118.51,-65.1 -211.09,-157.17 -277.21,-275.68 -66.12,-118.51 -99.18,-258.39 -99.18,-419.62 0,-161.24 32.55,-301.11 97.66,-419.63 65.61,-118.51 157.67,-210.57 276.18,-275.68 118.52,-65.61 257.88,-98.16 417.08,-98.16 196.85,0 359.61,49.33 488.29,148.52 128.69,99.18 210.07,237.02 244.15,413.52l-378.93 0c-25.44,-76.3 -67.65,-133.77 -127.16,-172.94 -59.51,-39.16 -134.79,-58.49 -226.35,-58.49 -125.63,0 -225.32,40.18 -300.09,120.55 -74.77,80.87 -111.9,194.8 -111.9,342.31 0,147.5 37.13,261.44 111.9,342.31 74.77,80.36 174.46,120.55 300.09,120.55 196.85,0 316.88,-84.95 361.14,-254.32l381.47 0c-32.04,184.63 -112.91,328.58 -241.6,431.32 -128.68,102.24 -296.03,153.61 -501.01,153.61zm946.06 -30.52l0 -2136.27 378.94 0 0 1200.38 10.17 0 643.42 -590.02 452.69 0 -663.77 600.19 717.17 925.72 -447.6 0 -534.06 -694.29 -178.02 144.96 0 549.33 -378.94 0z"/>
   </g>
  </g>
 </g>
</svg>
